<svg width="84" height="64" viewBox="0 0 84 64" fill="none" xmlns="http://www.w3.org/2000/svg">
<path d="M15.46 7.8V21H13.48V13.36L13.64 9.72H13.62L9.6 21H7.82L3.8 9.72H3.78L3.94 13.36V21H1.96V7.8H5.14L7.8 15.44L8.72 18.58H8.76L9.7 15.44L12.34 7.8H15.46ZM23.3452 21.2C22.3452 21.2 21.4652 20.9933 20.7052 20.58C19.9452 20.1667 19.3518 19.5733 18.9252 18.8C18.5118 18.0133 18.3052 17.08 18.3052 16C18.3052 14.92 18.5118 13.9933 18.9252 13.22C19.3518 12.4333 19.9385 11.8333 20.6852 11.42C21.4318 11.0067 22.2785 10.8 23.2252 10.8C24.1985 10.8 25.0252 11 25.7052 11.4C26.3852 11.8 26.9052 12.3467 27.2652 13.04C27.6252 13.7333 27.8052 14.52 27.8052 15.4C27.8052 15.64 27.7985 15.8667 27.7852 16.08C27.7718 16.2933 27.7518 16.48 27.7252 16.64H19.6852V15H26.7852L25.7252 15.32C25.7252 14.4133 25.4985 13.72 25.0452 13.24C24.5918 12.7467 23.9718 12.5 23.1852 12.5C22.6118 12.5 22.1118 12.6333 21.6852 12.9C21.2585 13.1667 20.9318 13.5667 20.7052 14.1C20.4785 14.62 20.3652 15.26 20.3652 16.02C20.3652 16.7667 20.4852 17.4 20.7252 17.92C20.9652 18.44 21.3052 18.8333 21.7452 19.1C22.1852 19.3667 22.7052 19.5 23.3052 19.5C23.9718 19.5 24.5118 19.3733 24.9252 19.12C25.3385 18.8667 25.6652 18.5133 25.9052 18.06L27.6052 18.86C27.3652 19.34 27.0385 19.76 26.6252 20.12C26.2252 20.4667 25.7452 20.7333 25.1852 20.92C24.6252 21.1067 24.0118 21.2 23.3452 21.2ZM34.3477 21.2C33.521 21.2 32.7677 20.9933 32.0877 20.58C31.421 20.1667 30.8943 19.5733 30.5077 18.8C30.121 18.0267 29.9277 17.1 29.9277 16.02C29.9277 14.9 30.1343 13.9533 30.5477 13.18C30.961 12.4067 31.5143 11.82 32.2077 11.42C32.901 11.0067 33.661 10.8 34.4877 10.8C35.341 10.8 36.061 11.0333 36.6477 11.5C37.2343 11.9667 37.6277 12.5733 37.8277 13.32L37.5877 13.54V6.5H39.7277V21H37.8277L37.6677 18.28L37.9477 18.3C37.8543 18.9 37.6343 19.42 37.2877 19.86C36.941 20.2867 36.5077 20.62 35.9877 20.86C35.481 21.0867 34.9343 21.2 34.3477 21.2ZM34.8077 19.48C35.381 19.48 35.8743 19.3333 36.2877 19.04C36.701 18.7467 37.021 18.3333 37.2477 17.8C37.4743 17.2667 37.5877 16.6267 37.5877 15.88C37.5877 15.1867 37.4743 14.5933 37.2477 14.1C37.021 13.5933 36.701 13.2067 36.2877 12.94C35.8877 12.6733 35.421 12.54 34.8877 12.54C33.9943 12.54 33.301 12.8467 32.8077 13.46C32.3143 14.0733 32.0677 14.92 32.0677 16C32.0677 17.08 32.3077 17.9333 32.7877 18.56C33.2677 19.1733 33.941 19.48 34.8077 19.48ZM45.4086 7.8V21H43.2686V7.8H45.4086ZM48.9452 21V11H50.8452L50.9852 13.6L50.7052 13.32C50.8918 12.7467 51.1585 12.2733 51.5052 11.9C51.8652 11.5133 52.2852 11.2333 52.7652 11.06C53.2585 10.8867 53.7785 10.8 54.3252 10.8C55.0318 10.8 55.6652 10.94 56.2252 11.22C56.7985 11.4867 57.2518 11.8933 57.5852 12.44C57.9185 12.9867 58.0852 13.68 58.0852 14.52V21H55.9452V15.18C55.9452 14.1933 55.7385 13.5133 55.3252 13.14C54.9252 12.7533 54.4185 12.56 53.8052 12.56C53.3652 12.56 52.9385 12.6667 52.5252 12.88C52.1118 13.08 51.7652 13.4067 51.4852 13.86C51.2185 14.3133 51.0852 14.92 51.0852 15.68V21H48.9452ZM65.4508 6.36C65.8641 6.36 66.2374 6.40667 66.5708 6.5C66.9174 6.58 67.1774 6.69333 67.3508 6.84L66.9508 8.38C66.8041 8.28667 66.6374 8.22 66.4508 8.18C66.2641 8.12667 66.0508 8.1 65.8108 8.1C65.2641 8.1 64.8308 8.22667 64.5108 8.48C64.2041 8.73333 64.0508 9.14667 64.0508 9.72V11.18L64.1108 11.72V21H61.9708V9.56C61.9708 9.05333 62.0441 8.6 62.1908 8.2C62.3508 7.8 62.5841 7.46667 62.8908 7.2C63.1974 6.92 63.5641 6.71333 63.9908 6.58C64.4308 6.43333 64.9174 6.36 65.4508 6.36ZM67.2908 11V12.68H60.0908V11H67.2908ZM73.3438 10.8C74.3171 10.8 75.1771 11.0067 75.9238 11.42C76.6704 11.8333 77.2504 12.4333 77.6638 13.22C78.0904 13.9933 78.3038 14.92 78.3038 16C78.3038 17.08 78.0904 18.0133 77.6638 18.8C77.2504 19.5733 76.6704 20.1667 75.9238 20.58C75.1771 20.9933 74.3171 21.2 73.3438 21.2C72.3704 21.2 71.5104 20.9933 70.7638 20.58C70.0171 20.1667 69.4304 19.5733 69.0038 18.8C68.5771 18.0133 68.3638 17.08 68.3638 16C68.3638 14.92 68.5771 13.9933 69.0038 13.22C69.4304 12.4333 70.0171 11.8333 70.7638 11.42C71.5104 11.0067 72.3704 10.8 73.3438 10.8ZM73.3438 12.48C72.7438 12.48 72.2304 12.62 71.8038 12.9C71.3904 13.1667 71.0704 13.56 70.8438 14.08C70.6171 14.6 70.5038 15.24 70.5038 16C70.5038 16.7467 70.6171 17.3867 70.8438 17.92C71.0704 18.44 71.3904 18.84 71.8038 19.12C72.2304 19.3867 72.7438 19.52 73.3438 19.52C73.9438 19.52 74.4504 19.3867 74.8638 19.12C75.2771 18.84 75.5971 18.44 75.8238 17.92C76.0504 17.3867 76.1638 16.7467 76.1638 16C76.1638 15.24 76.0504 14.6 75.8238 14.08C75.5971 13.56 75.2771 13.1667 74.8638 12.9C74.4504 12.62 73.9438 12.48 73.3438 12.48Z" fill="#22342B"/>
<path d="M0 36C0 31.5817 3.58172 28 8 28H84V56C84 60.4183 80.4183 64 76 64H0V36Z" fill="#344E41"/>
<path d="M20.78 39.8V53H18.24L13.14 44.68L11.86 42.34H11.84L11.92 44.48V53H9.96V39.8H12.48L17.56 48.1L18.86 50.48H18.88L18.8 48.32V39.8H20.78ZM25.4666 41.32C24.9999 41.32 24.6399 41.2067 24.3866 40.98C24.1466 40.74 24.0266 40.4067 24.0266 39.98C24.0266 39.5533 24.1466 39.2267 24.3866 39C24.6399 38.7733 24.9999 38.66 25.4666 38.66C25.9199 38.66 26.2666 38.7733 26.5066 39C26.7599 39.2267 26.8866 39.5533 26.8866 39.98C26.8866 40.4067 26.7599 40.74 26.5066 40.98C26.2666 41.2067 25.9199 41.32 25.4666 41.32ZM26.5266 43V53H24.3866V43H26.5266ZM38.6748 40.9L39.0148 42.58C38.9748 42.58 38.9348 42.58 38.8948 42.58C38.8548 42.5667 38.8148 42.56 38.7748 42.56C38.1348 42.56 37.6482 42.7 37.3148 42.98C36.9815 43.2467 36.8148 43.64 36.8148 44.16L35.7748 43.68C35.7748 43.1467 35.8882 42.6733 36.1148 42.26C36.3415 41.8333 36.6615 41.5 37.0748 41.26C37.5015 41.02 37.9815 40.9 38.5148 40.9C38.5415 40.9 38.5682 40.9 38.5948 40.9C38.6215 40.9 38.6482 40.9 38.6748 40.9ZM35.5148 51.44C36.5282 51.44 37.3148 51.6667 37.8748 52.12C38.4348 52.56 38.7148 53.1733 38.7148 53.96C38.7148 54.6533 38.4948 55.2467 38.0548 55.74C37.6148 56.2467 37.0148 56.6333 36.2548 56.9C35.5082 57.1667 34.6482 57.3 33.6748 57.3C32.0348 57.3 30.8215 57.0467 30.0348 56.54C29.2482 56.0333 28.8548 55.4 28.8548 54.64C28.8548 54.1067 29.0415 53.64 29.4148 53.24C29.8015 52.84 30.4482 52.6133 31.3548 52.56L31.2348 52.88C30.6748 52.76 30.2215 52.5467 29.8748 52.24C29.5415 51.92 29.3748 51.4733 29.3748 50.9C29.3748 50.3267 29.5948 49.84 30.0348 49.44C30.4748 49.04 31.0948 48.8067 31.8948 48.74L33.0148 49.28H32.7748C32.1615 49.3333 31.7282 49.4733 31.4748 49.7C31.2215 49.9267 31.0948 50.18 31.0948 50.46C31.0948 50.7933 31.2148 51.04 31.4548 51.2C31.7082 51.36 32.0615 51.44 32.5148 51.44H35.5148ZM33.6748 55.7C34.4082 55.7 35.0082 55.6267 35.4748 55.48C35.9548 55.3467 36.3082 55.1667 36.5348 54.94C36.7748 54.7267 36.8948 54.4867 36.8948 54.22C36.8948 53.9133 36.7682 53.6667 36.5148 53.48C36.2748 53.2933 35.8348 53.2 35.1948 53.2H31.9748C31.6015 53.2 31.2882 53.2933 31.0348 53.48C30.7815 53.68 30.6548 53.9467 30.6548 54.28C30.6548 54.72 30.9215 55.0667 31.4548 55.32C31.9882 55.5733 32.7282 55.7 33.6748 55.7ZM33.5948 42.8C34.4748 42.8 35.2348 42.94 35.8748 43.22C36.5282 43.5 37.0282 43.8933 37.3748 44.4C37.7348 44.9067 37.9148 45.5 37.9148 46.18C37.9148 46.86 37.7348 47.4533 37.3748 47.96C37.0282 48.4667 36.5282 48.86 35.8748 49.14C35.2348 49.42 34.4748 49.56 33.5948 49.56C32.2082 49.56 31.1415 49.2533 30.3948 48.64C29.6615 48.0133 29.2948 47.1933 29.2948 46.18C29.2948 45.5 29.4748 44.9067 29.8348 44.4C30.1948 43.8933 30.6948 43.5 31.3348 43.22C31.9882 42.94 32.7415 42.8 33.5948 42.8ZM33.5948 44.3C32.9815 44.3 32.4682 44.4733 32.0548 44.82C31.6548 45.1533 31.4548 45.6067 31.4548 46.18C31.4548 46.7533 31.6548 47.2133 32.0548 47.56C32.4682 47.9067 32.9815 48.08 33.5948 48.08C34.2215 48.08 34.7348 47.9067 35.1348 47.56C35.5482 47.2133 35.7548 46.7533 35.7548 46.18C35.7548 45.6067 35.5482 45.1533 35.1348 44.82C34.7348 44.4733 34.2215 44.3 33.5948 44.3ZM45.0756 53.2C44.0756 53.2 43.1956 52.9933 42.4356 52.58C41.6756 52.1667 41.0823 51.5733 40.6556 50.8C40.2423 50.0133 40.0356 49.08 40.0356 48C40.0356 46.92 40.2423 45.9933 40.6556 45.22C41.0823 44.4333 41.669 43.8333 42.4156 43.42C43.1623 43.0067 44.009 42.8 44.9556 42.8C45.929 42.8 46.7556 43 47.4356 43.4C48.1156 43.8 48.6356 44.3467 48.9956 45.04C49.3556 45.7333 49.5356 46.52 49.5356 47.4C49.5356 47.64 49.529 47.8667 49.5156 48.08C49.5023 48.2933 49.4823 48.48 49.4556 48.64H41.4156V47H48.5156L47.4556 47.32C47.4556 46.4133 47.229 45.72 46.7756 45.24C46.3223 44.7467 45.7023 44.5 44.9156 44.5C44.3423 44.5 43.8423 44.6333 43.4156 44.9C42.989 45.1667 42.6623 45.5667 42.4356 46.1C42.209 46.62 42.0956 47.26 42.0956 48.02C42.0956 48.7667 42.2156 49.4 42.4556 49.92C42.6956 50.44 43.0356 50.8333 43.4756 51.1C43.9156 51.3667 44.4356 51.5 45.0356 51.5C45.7023 51.5 46.2423 51.3733 46.6556 51.12C47.069 50.8667 47.3956 50.5133 47.6356 50.06L49.3356 50.86C49.0956 51.34 48.769 51.76 48.3556 52.12C47.9556 52.4667 47.4756 52.7333 46.9156 52.92C46.3556 53.1067 45.7423 53.2 45.0756 53.2ZM52.2381 53V43H54.0581L54.2581 44.8C54.5248 44.1467 54.9181 43.6533 55.4381 43.32C55.9715 42.9733 56.6248 42.8 57.3981 42.8C57.5981 42.8 57.7981 42.82 57.9981 42.86C58.1981 42.8867 58.3648 42.9333 58.4981 43L58.1981 44.88C58.0515 44.8267 57.8848 44.7867 57.6981 44.76C57.5248 44.72 57.2848 44.7 56.9781 44.7C56.5648 44.7 56.1581 44.8133 55.7581 45.04C55.3581 45.2533 55.0248 45.58 54.7581 46.02C54.5048 46.46 54.3781 47.02 54.3781 47.7V53H52.2381ZM61.5994 41.32C61.1327 41.32 60.7727 41.2067 60.5194 40.98C60.2794 40.74 60.1594 40.4067 60.1594 39.98C60.1594 39.5533 60.2794 39.2267 60.5194 39C60.7727 38.7733 61.1327 38.66 61.5994 38.66C62.0527 38.66 62.3994 38.7733 62.6394 39C62.8927 39.2267 63.0194 39.5533 63.0194 39.98C63.0194 40.4067 62.8927 40.74 62.6394 40.98C62.3994 41.2067 62.0527 41.32 61.5994 41.32ZM62.6594 43V53H60.5194V43H62.6594ZM71.7877 46.58C71.7877 45.9133 71.601 45.4 71.2277 45.04C70.8677 44.6667 70.3677 44.48 69.7277 44.48C69.1277 44.48 68.6143 44.62 68.1877 44.9C67.761 45.18 67.4477 45.6333 67.2477 46.26L65.4477 45.5C65.701 44.6867 66.1943 44.0333 66.9277 43.54C67.6743 43.0467 68.6343 42.8 69.8077 42.8C70.6077 42.8 71.3143 42.9333 71.9277 43.2C72.541 43.4533 73.021 43.84 73.3677 44.36C73.7277 44.88 73.9077 45.5467 73.9077 46.36V50.82C73.9077 51.3133 74.1543 51.56 74.6477 51.56C74.8877 51.56 75.121 51.5267 75.3477 51.46L75.2277 52.94C74.921 53.0867 74.5343 53.16 74.0677 53.16C73.641 53.16 73.2543 53.0867 72.9077 52.94C72.5743 52.78 72.3077 52.5467 72.1077 52.24C71.921 51.92 71.8277 51.5267 71.8277 51.06V50.92L72.2677 50.9C72.1477 51.42 71.901 51.8533 71.5277 52.2C71.1543 52.5333 70.721 52.7867 70.2277 52.96C69.7343 53.12 69.2343 53.2 68.7277 53.2C68.101 53.2 67.5343 53.1 67.0277 52.9C66.5343 52.7 66.141 52.4 65.8477 52C65.5677 51.5867 65.4277 51.08 65.4277 50.48C65.4277 49.7333 65.6677 49.12 66.1477 48.64C66.641 48.16 67.3343 47.8333 68.2277 47.66L72.1077 46.9L72.0877 48.4L69.2677 48.98C68.7077 49.0867 68.2877 49.24 68.0077 49.44C67.7277 49.64 67.5877 49.9333 67.5877 50.32C67.5877 50.6933 67.7277 50.9933 68.0077 51.22C68.301 51.4333 68.6877 51.54 69.1677 51.54C69.501 51.54 69.821 51.5 70.1277 51.42C70.4477 51.34 70.7343 51.2133 70.9877 51.04C71.241 50.8533 71.4343 50.62 71.5677 50.34C71.7143 50.0467 71.7877 49.7 71.7877 49.3V46.58Z" fill="white"/>
</svg>
